<svg width="35" height="35" viewBox="0 0 35 35" fill="none" xmlns="http://www.w3.org/2000/svg">
<g clip-path="url(#clip0_383_183)">
<path d="M31.112 5.83331H3.88976C3.37406 5.83331 2.87948 6.03817 2.51483 6.40283C2.15017 6.76748 1.94531 7.26206 1.94531 7.77776V27.2222C1.94531 27.7379 2.15017 28.2325 2.51483 28.5971C2.87948 28.9618 3.37406 29.1666 3.88976 29.1666H31.112C31.6277 29.1666 32.1223 28.9618 32.4869 28.5971C32.8516 28.2325 33.0564 27.7379 33.0564 27.2222V7.77776C33.0564 7.26206 32.8516 6.76748 32.4869 6.40283C32.1223 6.03817 31.6277 5.83331 31.112 5.83331ZM29.6148 27.2222H5.50365L12.3092 20.1833L10.9092 18.8319L3.88976 26.0944V9.25554L15.9745 21.2819C16.3388 21.6441 16.8316 21.8474 17.3453 21.8474C17.859 21.8474 18.3518 21.6441 18.7161 21.2819L31.112 8.95415V25.968L23.9564 18.8125L22.5856 20.1833L29.6148 27.2222ZM5.16337 7.77776H29.537L17.3453 19.9014L5.16337 7.77776Z" fill="#89693A"/>
</g>
<defs>
<clipPath id="clip0_383_183">
<rect width="35" height="35" fill="white"/>
</clipPath>
</defs>
</svg>
